<svg xmlns="http://www.w3.org/2000/svg" viewBox="0 0 723.06 523.99"><defs><style>.cls-1{fill:#6b00dd;}</style></defs><title>WEKA Symbol Color</title><g id="Layer_2" data-name="Layer 2"><g id="Layer_1-2" data-name="Layer 1"><path class="cls-1" d="M577.13.6,702.86,0a19.26,19.26,0,0,1,19.35,19.26V145.75c0,17.16-20.76,25.75-32.89,13.61L563.6,33.46C551.51,21.36,560,.68,577.13.6Z"/><path class="cls-1" d="M0,19.8V121.71a105.89,105.89,0,0,0,30.78,74.65L350.59,518.27c12.12,12.19,32.92,3.61,32.92-13.57V402.85a105.9,105.9,0,0,0-30.77-74.64L32.92,6.23C20.81-6,0,2.61,0,19.8Z"/><path class="cls-1" d="M339.55,19.8V121.71a105.93,105.93,0,0,0,30.78,74.65L690.14,518.27c12.12,12.19,32.92,3.61,32.92-13.57V402.85a105.9,105.9,0,0,0-30.77-74.64L372.47,6.23C360.36-6,339.55,2.61,339.55,19.8Z"/></g></g></svg>