<svg xmlns="http://www.w3.org/2000/svg" viewBox="0 0 480 103.03"><defs><style>.cls-1{fill:#6b00dd;}</style></defs><title>Asset 3</title><g id="Layer_2" data-name="Layer 2"><g id="Layer_1-2" data-name="Layer 1"><path class="cls-1" d="M113.48.12,138.2,0A3.79,3.79,0,0,1,142,3.79V28.66a3.79,3.79,0,0,1-6.47,2.67L110.81,6.58A3.79,3.79,0,0,1,113.48.12Z"/><path class="cls-1" d="M0,3.89v20A20.85,20.85,0,0,0,6.05,38.61L68.93,101.9a3.79,3.79,0,0,0,6.48-2.67v-20a20.85,20.85,0,0,0-6-14.68L6.47,1.22A3.79,3.79,0,0,0,0,3.89Z"/><path class="cls-1" d="M66.76,3.89v20a20.85,20.85,0,0,0,6,14.68L135.7,101.9a3.78,3.78,0,0,0,6.47-2.67v-20a20.85,20.85,0,0,0-6-14.68L73.24,1.22A3.79,3.79,0,0,0,66.76,3.89Z"/><path class="cls-1" d="M194.8,23.53h6.89l16,46.69,15.38-46.85h5.2l15.38,46.85,16-46.69h6.65L256.3,80h-5.37L235.56,34.51,220.1,80h-5.28Z"/><path class="cls-1" d="M297.36,23.53h40.52V29.3H303.69V48.44h30.59v5.77H303.69V73.82h34.59v5.77H297.36Z"/><path class="cls-1" d="M360.61,23.53h6.33V57l32.19-33.48h8.17L383.28,48l25.06,31.55h-7.93L378.87,52.44,366.94,64.53V79.59h-6.33Z"/><path class="cls-1" d="M448.53,23.13h5.92L480,79.59h-6.81l-6.56-14.82H436.12l-6.65,14.82H423Zm15.61,36L451.41,30.5,438.6,59.09Z"/></g></g></svg>